<svg height="1166" width="720" xmlns="http://www.w3.org/2000/svg">
<rect height="1166" fill="#555" width="720"></rect>
<text fill="#7f7" font-family="Courier New" font-size="12" xml:space="preserve">
<tspan x="10" y="26">└─┬ reload@1.1.1 </tspan>
<tspan x="10" y="42">  ├─┬ cli-color@1.1.0 </tspan>
<tspan x="10" y="58">  │ ├── ansi-regex@2.1.1 </tspan>
<tspan x="10" y="74">  │ ├── d@0.1.1 </tspan>
<tspan x="10" y="90">  │ ├─┬ es5-ext@0.10.15 </tspan>
<tspan x="10" y="106">  │ │ └─┬ es6-symbol@3.1.1 </tspan>
<tspan x="10" y="122">  │ │   └── d@1.0.0 </tspan>
<tspan x="10" y="138">  │ ├─┬ es6-iterator@2.0.1 </tspan>
<tspan x="10" y="154">  │ │ └── d@1.0.0 </tspan>
<tspan x="10" y="170">  │ ├─┬ memoizee@0.3.10 </tspan>
<tspan x="10" y="186">  │ │ ├─┬ es6-weak-map@0.1.4 </tspan>
<tspan x="10" y="202">  │ │ │ ├── es6-iterator@0.1.3 </tspan>
<tspan x="10" y="218">  │ │ │ └── es6-symbol@2.0.1 </tspan>
<tspan x="10" y="234">  │ │ ├─┬ event-emitter@0.3.5 </tspan>
<tspan x="10" y="250">  │ │ │ └── d@1.0.0 </tspan>
<tspan x="10" y="266">  │ │ ├── lru-queue@0.1.0 </tspan>
<tspan x="10" y="282">  │ │ └── next-tick@0.2.2 </tspan>
<tspan x="10" y="298">  │ └─┬ timers-ext@0.1.2 </tspan>
<tspan x="10" y="314">  │   └── next-tick@1.0.0 </tspan>
<tspan x="10" y="330">  ├─┬ commander@2.9.0 </tspan>
<tspan x="10" y="346">  │ └── graceful-readlink@1.0.1 </tspan>
<tspan x="10" y="362">  ├── death@1.0.0 </tspan>
<tspan x="10" y="378">  ├─┬ express@4.14.1 </tspan>
<tspan x="10" y="394">  │ ├─┬ accepts@1.3.3 </tspan>
<tspan x="10" y="410">  │ │ ├─┬ mime-types@2.1.15 </tspan>
<tspan x="10" y="426">  │ │ │ └── mime-db@1.27.0 </tspan>
<tspan x="10" y="442">  │ │ └── negotiator@0.6.1 </tspan>
<tspan x="10" y="458">  │ ├── array-flatten@1.1.1 </tspan>
<tspan x="10" y="474">  │ ├── content-disposition@0.5.2 </tspan>
<tspan x="10" y="490">  │ ├── content-type@1.0.2 </tspan>
<tspan x="10" y="506">  │ ├── cookie@0.3.1 </tspan>
<tspan x="10" y="522">  │ ├── cookie-signature@1.0.6 </tspan>
<tspan x="10" y="538">  │ ├─┬ debug@2.2.0 </tspan>
<tspan x="10" y="554">  │ │ └── ms@0.7.1 </tspan>
<tspan x="10" y="570">  │ ├── depd@1.1.0 </tspan>
<tspan x="10" y="586">  │ ├── encodeurl@1.0.1 </tspan>
<tspan x="10" y="602">  │ ├── escape-html@1.0.3 </tspan>
<tspan x="10" y="618">  │ ├── etag@1.7.0 </tspan>
<tspan x="10" y="634">  │ ├─┬ finalhandler@0.5.1 </tspan>
<tspan x="10" y="650">  │ │ ├── statuses@1.3.1 </tspan>
<tspan x="10" y="666">  │ │ └── unpipe@1.0.0 </tspan>
<tspan x="10" y="682">  │ ├── fresh@0.3.0 </tspan>
<tspan x="10" y="698">  │ ├── merge-descriptors@1.0.1 </tspan>
<tspan x="10" y="714">  │ ├── methods@1.1.2 </tspan>
<tspan x="10" y="730">  │ ├─┬ on-finished@2.3.0 </tspan>
<tspan x="10" y="746">  │ │ └── ee-first@1.1.1 </tspan>
<tspan x="10" y="762">  │ ├── parseurl@1.3.1 </tspan>
<tspan x="10" y="778">  │ ├── path-to-regexp@0.1.7 </tspan>
<tspan x="10" y="794">  │ ├─┬ proxy-addr@1.1.4 </tspan>
<tspan x="10" y="810">  │ │ ├── forwarded@0.1.0 </tspan>
<tspan x="10" y="826">  │ │ └── ipaddr.js@1.3.0 </tspan>
<tspan x="10" y="842">  │ ├── qs@6.2.0 </tspan>
<tspan x="10" y="858">  │ ├── range-parser@1.2.0 </tspan>
<tspan x="10" y="874">  │ ├─┬ send@0.14.2 </tspan>
<tspan x="10" y="890">  │ │ ├── destroy@1.0.4 </tspan>
<tspan x="10" y="906">  │ │ ├─┬ http-errors@1.5.1 </tspan>
<tspan x="10" y="922">  │ │ │ ├── inherits@2.0.3 </tspan>
<tspan x="10" y="938">  │ │ │ └── setprototypeof@1.0.2 </tspan>
<tspan x="10" y="954">  │ │ ├── mime@1.3.4 </tspan>
<tspan x="10" y="970">  │ │ └── ms@0.7.2 </tspan>
<tspan x="10" y="986">  │ ├── serve-static@1.11.2 </tspan>
<tspan x="10" y="1002">  │ ├─┬ type-is@1.6.15 </tspan>
<tspan x="10" y="1018">  │ │ └── media-typer@0.3.0 </tspan>
<tspan x="10" y="1034">  │ ├── utils-merge@1.0.0 </tspan>
<tspan x="10" y="1050">  │ └── vary@1.1.1 </tspan>
<tspan x="10" y="1066">  ├── minimist@1.2.0 </tspan>
<tspan x="10" y="1082">  ├── open@0.0.5 </tspan>
<tspan x="10" y="1098">  ├── supervisor@0.11.0 </tspan>
<tspan x="10" y="1114">  └─┬ ws@1.1.4 </tspan>
<tspan x="10" y="1130">    ├── options@0.0.6 </tspan>
<tspan x="10" y="1146">    └── ultron@1.0.2</tspan>
</text>
</svg>
